<svg xmlns="http://www.w3.org/2000/svg" xmlns:xlink="http://www.w3.org/1999/xlink" width="1920" zoomAndPan="magnify" viewBox="0 0 1440 809.999993" height="1080" preserveAspectRatio="xMidYMid meet" version="1.0"><defs><g/></defs><path fill="#141b34" d="M 479.109375 312.503906 L 479.109375 357.746094 L 475.808594 357.746094 L 457.515625 321.144531 L 395.285156 321.144531 L 395.285156 397.902344 L 436.179688 397.902344 L 448.121094 375.027344 L 451.675781 375.027344 L 451.675781 429.421875 L 448.121094 429.421875 L 436.179688 406.546875 L 395.285156 406.546875 L 395.285156 477.203125 L 418.148438 486.863281 L 418.148438 490.421875 L 348.039062 490.421875 L 348.039062 486.863281 L 368.105469 476.949219 L 368.105469 325.976562 L 348.039062 316.0625 L 348.039062 312.503906 Z M 527.132812 340.207031 C 522.054688 340.207031 517.734375 338.515625 514.179688 335.125 C 510.792969 331.566406 509.097656 327.246094 509.097656 322.164062 C 509.097656 317.078125 510.792969 312.84375 514.179688 309.453125 C 517.734375 305.894531 522.054688 304.117188 527.132812 304.117188 C 532.214844 304.117188 536.445312 305.894531 539.832031 309.453125 C 543.390625 312.84375 545.171875 317.078125 545.171875 322.164062 C 545.171875 327.246094 543.390625 331.566406 539.832031 335.125 C 536.445312 338.515625 532.214844 340.207031 527.132812 340.207031 Z M 540.339844 364.355469 L 540.339844 478.476562 L 558.886719 486.609375 L 558.886719 490.421875 L 495.378906 490.421875 L 495.378906 486.609375 L 513.921875 478.476562 L 513.921875 381.382812 L 495.378906 374.011719 L 495.378906 370.199219 L 537.804688 361.8125 Z M 617.488281 297.253906 L 617.488281 478.476562 L 636.03125 486.609375 L 636.03125 490.421875 L 572.527344 490.421875 L 572.527344 486.609375 L 591.070312 478.476562 L 591.070312 313.519531 L 572.527344 306.148438 L 572.527344 302.335938 L 614.949219 294.710938 Z M 718.335938 475.679688 C 734.933594 475.679688 747.46875 468.054688 755.933594 452.804688 L 760.503906 455.09375 C 756.273438 467.460938 749.75 476.949219 740.945312 483.558594 C 732.3125 490.167969 721.894531 493.472656 709.703125 493.472656 C 698.1875 493.472656 687.859375 490.761719 678.710938 485.335938 C 669.738281 479.746094 662.625 472.035156 657.375 462.207031 C 652.292969 452.210938 649.753906 440.6875 649.753906 427.640625 C 649.753906 414.765625 652.378906 403.328125 657.628906 393.328125 C 663.046875 383.332031 670.246094 375.621094 679.21875 370.199219 C 688.367188 364.609375 698.269531 361.8125 708.941406 361.8125 C 719.609375 361.8125 728.839844 364.101562 736.628906 368.675781 C 744.589844 373.25 750.597656 379.433594 754.664062 387.230469 C 758.898438 395.023438 761.011719 403.582031 761.011719 412.898438 L 676.679688 412.898438 C 676.511719 414.425781 676.425781 416.796875 676.425781 420.015625 C 676.425781 430.351562 678.203125 439.757812 681.761719 448.230469 C 685.484375 456.703125 690.480469 463.394531 696.746094 468.308594 C 703.183594 473.222656 710.382812 475.679688 718.335938 475.679688 Z M 708.941406 369.945312 C 701.320312 369.945312 694.632812 373.082031 688.875 379.351562 C 683.285156 385.449219 679.5625 394.089844 677.695312 405.273438 L 736.628906 405.273438 C 735.949219 394.089844 733.070312 385.449219 727.992188 379.351562 C 722.910156 373.082031 716.5625 369.945312 708.941406 369.945312 Z M 908.511719 312.503906 L 908.511719 357.746094 L 905.207031 357.746094 L 886.917969 321.144531 L 824.683594 321.144531 L 824.683594 397.902344 L 865.578125 397.902344 L 877.519531 375.027344 L 881.078125 375.027344 L 881.078125 429.421875 L 877.519531 429.421875 L 865.578125 406.546875 L 824.683594 406.546875 L 824.683594 477.203125 L 847.542969 486.863281 L 847.542969 490.421875 L 777.433594 490.421875 L 777.433594 486.863281 L 797.503906 476.949219 L 797.503906 325.976562 L 777.433594 316.0625 L 777.433594 312.503906 Z M 969.742188 297.253906 L 969.742188 478.476562 L 988.285156 486.609375 L 988.285156 490.421875 L 924.777344 490.421875 L 924.777344 486.609375 L 943.324219 478.476562 L 943.324219 313.519531 L 924.777344 306.148438 L 924.777344 302.335938 L 967.203125 294.710938 Z M 1070.589844 475.679688 C 1087.1875 475.679688 1099.714844 468.054688 1108.183594 452.804688 L 1112.757812 455.09375 C 1108.523438 467.460938 1102.003906 476.949219 1093.199219 483.558594 C 1084.558594 490.167969 1074.148438 493.472656 1061.953125 493.472656 C 1050.4375 493.472656 1040.105469 490.761719 1030.964844 485.335938 C 1021.988281 479.746094 1014.875 472.035156 1009.625 462.207031 C 1004.546875 452.210938 1002.003906 440.6875 1002.003906 427.640625 C 1002.003906 414.765625 1004.632812 403.328125 1009.878906 393.328125 C 1015.300781 383.332031 1022.496094 375.621094 1031.472656 370.199219 C 1040.617188 364.609375 1050.523438 361.8125 1061.191406 361.8125 C 1071.859375 361.8125 1081.085938 364.101562 1088.878906 368.675781 C 1096.835938 373.25 1102.851562 379.433594 1106.914062 387.230469 C 1111.148438 395.023438 1113.265625 403.582031 1113.265625 412.898438 L 1028.929688 412.898438 C 1028.761719 414.425781 1028.675781 416.796875 1028.675781 420.015625 C 1028.675781 430.351562 1030.457031 439.757812 1034.011719 448.230469 C 1037.738281 456.703125 1042.734375 463.394531 1049 468.308594 C 1055.433594 473.222656 1062.628906 475.679688 1070.589844 475.679688 Z M 1061.191406 369.945312 C 1053.570312 369.945312 1046.878906 373.082031 1041.125 379.351562 C 1035.535156 385.449219 1031.808594 394.089844 1029.949219 405.273438 L 1088.878906 405.273438 C 1088.203125 394.089844 1085.324219 385.449219 1080.242188 379.351562 C 1075.160156 373.082031 1068.808594 369.945312 1061.191406 369.945312 Z M 1199.347656 421.796875 L 1234.90625 478.476562 L 1252.691406 486.609375 L 1252.691406 490.421875 L 1195.027344 490.421875 L 1195.027344 486.609375 L 1205.695312 478.476562 L 1180.039062 438.316406 L 1153.878906 478.730469 L 1166.070312 486.609375 L 1166.070312 490.421875 L 1125.175781 490.421875 L 1125.175781 486.609375 L 1142.953125 478.476562 L 1174.960938 430.4375 L 1140.921875 376.808594 L 1125.425781 368.675781 L 1125.425781 364.863281 L 1183.597656 364.863281 L 1183.597656 368.675781 L 1170.894531 376.808594 L 1194.265625 413.917969 L 1220.175781 376.808594 L 1207.980469 368.675781 L 1207.980469 364.863281 L 1246.339844 364.863281 L 1246.339844 368.675781 L 1230.082031 377.316406 Z M 1199.347656 421.796875 " fill-opacity="1" fill-rule="nonzero"/><path stroke-linecap="round" transform="matrix(3.410489, 0, 0, 3.4125, 0.00703792, 234.483567)" fill="none" stroke-linejoin="round" d="M 25.560161 44.740391 L 42.650131 73.804036 C 44.25364 76.530684 45.055394 77.892863 45.909835 78.640345 C 48.182237 80.62638 51.2793 80.619512 53.545974 78.623175 C 54.398125 77.872259 55.196443 76.506645 56.790789 73.773129 L 44.685442 53.64378 L 50.795956 43.093185 L 38.340127 43.093185 L 32.959209 34.145154 L 55.979872 34.145154 L 63.666407 20.874778 L 36.027638 20.874778 C 25.261221 20.874778 19.878012 20.874778 18.087809 24.956738 C 16.297605 29.038698 19.385506 34.272214 25.560161 44.740391 Z M 25.560161 44.740391 " stroke="#141b34" stroke-width="4.938" stroke-opacity="1" stroke-miterlimit="4"/><path stroke-linecap="round" transform="matrix(3.410489, 0, 0, 3.4125, 0.00703792, 234.483567)" fill="none" stroke-linejoin="round" d="M 82.873009 24.891491 C 84.801801 29.116536 81.47452 34.533203 74.819957 45.368825 L 61.602462 66.958798 L 53.792227 54.482836 L 74.060581 20.874778 C 78.87798 21.235355 81.652051 22.216353 82.873009 24.891491 Z M 82.873009 24.891491 " stroke="#141b34" stroke-width="4.938" stroke-opacity="1" stroke-miterlimit="4"/><g fill="#000000" fill-opacity="1"><g transform="translate(1270.120142, 518.785014)"><g><path d="M 23.25 -47.546875 L 6.453125 -47.546875 L 6.453125 -42.75 L 23.25 -42.75 L 23.25 -25.953125 L 28.046875 -25.953125 L 28.046875 -42.75 L 44.84375 -42.75 L 44.84375 -47.546875 L 28.046875 -47.546875 L 28.046875 -64.34375 L 23.25 -64.34375 Z M 23.25 -47.546875 "/></g></g></g></svg>